<svg width="115" height="116" viewBox="0 0 115 116" fill="none" xmlns="http://www.w3.org/2000/svg">
<path d="M103.88 23.67H85.96V30.24H110.44V3.95999H78.63V10.52H103.88V23.67Z" fill="#1E2C69"/>
<path d="M29.81 23.67H11.78V10.52H37.13V3.95999H5.22V30.24H29.81V23.67Z" fill="#1E2C69"/>
<path d="M37.13 107.87V114.43H5.22V88.16H29.81V94.73H11.79V107.87H37.13Z" fill="#1E2C69"/>
<path d="M110.44 88.16V114.43H78.63V107.87H103.88V94.73H85.96V88.16H110.44Z" fill="#1E2C69"/>
<path d="M106.62 62.55C104.31 62.55 102.27 63.8 101.17 65.66H65.06V103.83C63.13 104.92 61.84 106.99 61.84 109.35C61.84 112.87 64.69 115.71 68.2 115.71C71.71 115.71 74.55 112.86 74.55 109.35C74.55 107.1 73.38 105.12 71.62 104V72.22H101.21C102.33 74.05 104.34 75.26 106.63 75.26C110.15 75.26 112.99 72.41 112.99 68.9C112.99 65.39 110.14 62.54 106.63 62.54L106.62 62.55ZM68.2 111.19C67.19 111.19 66.37 110.37 66.37 109.36C66.37 108.35 67.19 107.53 68.2 107.53C69.21 107.53 70.03 108.35 70.03 109.36C70.03 110.37 69.21 111.19 68.2 111.19ZM106.62 70.74C105.61 70.74 104.79 69.92 104.79 68.91C104.79 67.9 105.61 67.08 106.62 67.08C107.63 67.08 108.45 67.9 108.45 68.91C108.45 69.92 107.63 70.74 106.62 70.74Z" fill="#72D3A8"/>
<path d="M108.5 41.17C105.99 41.17 103.81 42.63 102.78 44.75H71.61V11.71C73.38 10.59 74.54 8.61002 74.54 6.36002C74.54 2.85002 71.69 0 68.19 0C64.69 0 61.83 2.85002 61.83 6.36002C61.83 8.73002 63.12 10.79 65.05 11.88V51.31H103.39C104.55 52.86 106.41 53.87 108.5 53.87C112.01 53.87 114.86 51.02 114.86 47.52C114.86 44.02 112.01 41.16 108.5 41.16V41.17ZM68.2 8.19C67.19 8.19 66.37 7.37002 66.37 6.36002C66.37 5.35002 67.19 4.53 68.2 4.53C69.21 4.53 70.03 5.35002 70.03 6.36002C70.03 7.37002 69.21 8.19 68.2 8.19ZM108.5 49.36C107.49 49.36 106.67 48.54 106.67 47.53C106.67 46.52 107.49 45.7 108.5 45.7C109.51 45.7 110.33 46.52 110.33 47.53C110.33 48.54 109.51 49.36 108.5 49.36Z" fill="#1E2C69"/>
<path d="M47.54 0C44.02 0 41.18 2.85002 41.18 6.36002C41.18 8.62002 42.37 10.62 44.15 11.73V44.75H12.09C11.06 42.63 8.88 41.17 6.37 41.17C2.86 41.17 0.0100098 44.02 0.0100098 47.53C0.0100098 51.04 2.86 53.88 6.37 53.88C8.46 53.88 10.32 52.87 11.48 51.32H50.72V11.86C52.62 10.77 53.9 8.71002 53.9 6.36002C53.9 2.85002 51.05 0 47.55 0H47.54ZM6.35999 49.36C5.34999 49.36 4.53 48.54 4.53 47.53C4.53 46.52 5.34999 45.7 6.35999 45.7C7.36999 45.7 8.19 46.52 8.19 47.53C8.19 48.54 7.36999 49.36 6.35999 49.36ZM47.54 8.19C46.53 8.19 45.7 7.37002 45.7 6.36002C45.7 5.35002 46.53 4.53 47.54 4.53C48.55 4.53 49.37 5.35002 49.37 6.36002C49.37 7.37002 48.55 8.19 47.54 8.19Z" fill="#72D3A8"/>
<path d="M50.71 103.86V65.67H11.82C10.71 63.81 8.67999 62.56 6.35999 62.56C2.84999 62.56 0 65.41 0 68.92C0 72.43 2.84999 75.28 6.35999 75.28C8.64999 75.28 10.67 74.07 11.79 72.24H44.15V103.99C42.37 105.11 41.18 107.1 41.18 109.36C41.18 112.88 44.03 115.72 47.54 115.72C51.05 115.72 53.89 112.87 53.89 109.36C53.89 107.01 52.61 104.95 50.71 103.86ZM6.35999 70.74C5.34999 70.74 4.53 69.92 4.53 68.91C4.53 67.9 5.34999 67.08 6.35999 67.08C7.36999 67.08 8.19 67.9 8.19 68.91C8.19 69.92 7.36999 70.74 6.35999 70.74ZM47.54 111.19C46.53 111.19 45.7 110.37 45.7 109.36C45.7 108.35 46.53 107.53 47.54 107.53C48.55 107.53 49.37 108.35 49.37 109.36C49.37 110.37 48.55 111.19 47.54 111.19Z" fill="#1E2C69"/>
</svg>
