<svg width="550" height="132" viewBox="0 0 550 132" fill="none" xmlns="http://www.w3.org/2000/svg">
<path d="M109.01 32.98H91.09V39.55H115.57V13.27H83.76V19.83H109.01V32.98Z" fill="#1E2C69"/>
<path d="M34.94 32.98H16.91V19.83H42.26V13.27H10.35V39.55H34.94V32.98Z" fill="#1E2C69"/>
<path d="M42.26 117.18V123.74H10.35V97.47H34.94V104.04H16.92V117.18H42.26Z" fill="#1E2C69"/>
<path d="M115.57 97.47V123.74H83.76V117.18H109.01V104.04H91.09V97.47H115.57Z" fill="#1E2C69"/>
<path d="M111.75 71.86C109.44 71.86 107.4 73.11 106.3 74.97H70.19V113.14C68.26 114.23 66.97 116.3 66.97 118.66C66.97 122.18 69.82 125.02 73.33 125.02C76.84 125.02 79.68 122.17 79.68 118.66C79.68 116.41 78.51 114.43 76.75 113.31V81.53H106.34C107.46 83.36 109.47 84.57 111.76 84.57C115.28 84.57 118.12 81.72 118.12 78.21C118.12 74.7 115.27 71.85 111.76 71.85L111.75 71.86ZM73.33 120.5C72.32 120.5 71.5 119.68 71.5 118.67C71.5 117.66 72.32 116.84 73.33 116.84C74.34 116.84 75.16 117.66 75.16 118.67C75.16 119.68 74.34 120.5 73.33 120.5ZM111.75 80.05C110.74 80.05 109.92 79.23 109.92 78.22C109.92 77.21 110.74 76.39 111.75 76.39C112.76 76.39 113.58 77.21 113.58 78.22C113.58 79.23 112.76 80.05 111.75 80.05Z" fill="#72D3A8"/>
<path d="M113.63 50.48C111.12 50.48 108.94 51.94 107.91 54.06H76.74V21.02C78.51 19.9 79.67 17.92 79.67 15.67C79.67 12.16 76.82 9.31 73.32 9.31C69.82 9.31 66.96 12.16 66.96 15.67C66.96 18.04 68.25 20.1 70.18 21.19V60.62H108.52C109.68 62.17 111.54 63.18 113.63 63.18C117.14 63.18 119.99 60.33 119.99 56.83C119.99 53.33 117.14 50.47 113.63 50.47V50.48ZM73.33 17.5C72.32 17.5 71.5 16.68 71.5 15.67C71.5 14.66 72.32 13.84 73.33 13.84C74.34 13.84 75.16 14.66 75.16 15.67C75.16 16.68 74.34 17.5 73.33 17.5ZM113.63 58.67C112.62 58.67 111.8 57.85 111.8 56.84C111.8 55.83 112.62 55.01 113.63 55.01C114.64 55.01 115.46 55.83 115.46 56.84C115.46 57.85 114.64 58.67 113.63 58.67Z" fill="#1E2C69"/>
<path d="M52.67 9.31C49.15 9.31 46.31 12.16 46.31 15.67C46.31 17.93 47.5 19.93 49.28 21.04V54.06H17.22C16.19 51.94 14.01 50.48 11.5 50.48C7.99 50.48 5.14001 53.33 5.14001 56.84C5.14001 60.35 7.99 63.19 11.5 63.19C13.59 63.19 15.45 62.18 16.61 60.63H55.85V21.17C57.75 20.08 59.03 18.02 59.03 15.67C59.03 12.16 56.18 9.31 52.68 9.31H52.67ZM11.49 58.67C10.48 58.67 9.66 57.85 9.66 56.84C9.66 55.83 10.48 55.01 11.49 55.01C12.5 55.01 13.32 55.83 13.32 56.84C13.32 57.85 12.5 58.67 11.49 58.67ZM52.67 17.5C51.66 17.5 50.83 16.68 50.83 15.67C50.83 14.66 51.66 13.84 52.67 13.84C53.68 13.84 54.5 14.66 54.5 15.67C54.5 16.68 53.68 17.5 52.67 17.5Z" fill="#72D3A8"/>
<path d="M55.84 113.17V74.98H16.95C15.84 73.12 13.81 71.87 11.49 71.87C7.97999 71.87 5.13 74.72 5.13 78.23C5.13 81.74 7.97999 84.59 11.49 84.59C13.78 84.59 15.8 83.38 16.92 81.55H49.28V113.3C47.5 114.42 46.31 116.41 46.31 118.67C46.31 122.19 49.16 125.03 52.67 125.03C56.18 125.03 59.02 122.18 59.02 118.67C59.02 116.32 57.74 114.26 55.84 113.17ZM11.49 80.05C10.48 80.05 9.66 79.23 9.66 78.22C9.66 77.21 10.48 76.39 11.49 76.39C12.5 76.39 13.32 77.21 13.32 78.22C13.32 79.23 12.5 80.05 11.49 80.05ZM52.67 120.5C51.66 120.5 50.83 119.68 50.83 118.67C50.83 117.66 51.66 116.84 52.67 116.84C53.68 116.84 54.5 117.66 54.5 118.67C54.5 119.68 53.68 120.5 52.67 120.5Z" fill="#1E2C69"/>
<path d="M149.78 104.86C148.92 104.49 148.28 104.3 148.28 103.76C148.28 103.26 148.79 102.86 149.43 102.86C149.94 102.86 150.43 103.13 150.64 103.6L151.45 103.04C151.17 102.27 150.42 101.79 149.42 101.79C148.16 101.79 147.16 102.59 147.16 103.74C147.16 104.89 148.07 105.26 148.9 105.63C149.72 105.98 150.64 106.37 150.64 107.02C150.64 107.56 150.04 107.93 149.25 107.93C148.58 107.93 148 107.61 147.68 107.07L146.82 107.69C147.22 108.5 148.09 109.04 149.25 109.04C150.67 109.04 151.75 108.23 151.75 107C151.75 105.89 150.89 105.36 149.78 104.87V104.86Z" fill="#0E0E0E"/>
<path d="M159.59 101.77H159.52L156.22 108.93H157.42L157.89 107.86H161.21L161.69 108.93H162.88L159.58 101.77H159.59ZM158.33 106.92L159.57 104.17L160.8 106.92H158.33Z" fill="#0E0E0E"/>
<path d="M172.66 101.89V106.47L168.18 101.79H168.12V108.94H169.22V104.36L173.7 109.04H173.76V101.89H172.66Z" fill="#0E0E0E"/>
<path d="M179.1 101.91V103.01H180.98V108.93H182.08V103.01H183.97V101.91H179.1Z" fill="#0E0E0E"/>
<path d="M193.48 103V101.91H189.3V108.93H193.48V107.83H190.4V105.89H193.06V104.79H190.4V103H193.48ZM191.48 99.91L190.62 101.33H191.42L192.46 99.91H191.49H191.48Z" fill="#0E0E0E"/>
<path d="M209.41 107.93C208.16 107.93 206.92 106.84 206.92 105.42C206.92 104 208.14 102.9 209.41 102.9C210.09 102.9 210.73 103.22 211.23 103.72L211.87 102.85C211.18 102.19 210.34 101.8 209.43 101.78C207.46 101.78 205.81 103.44 205.81 105.42C205.81 107.4 207.46 109.03 209.45 109.03C210.5 109.03 211.27 108.57 211.88 107.98L211.24 107.1C210.76 107.57 210.14 107.93 209.42 107.93H209.41Z" fill="#0E0E0E"/>
<path d="M221.36 103V101.91H217.19V108.93H221.36V107.83H218.29V105.89H220.95V104.79H218.29V103H221.36Z" fill="#0E0E0E"/>
<path d="M231.5 101.89V106.47L227.02 101.79H226.96V108.94H228.06V104.36L232.54 109.04H232.6V101.89H231.5Z" fill="#0E0E0E"/>
<path d="M237.94 101.91V103.01H239.82V108.93H240.92V103.01H242.81V101.91H237.94Z" fill="#0E0E0E"/>
<path d="M251.3 106.12C252.11 105.85 252.69 105.07 252.69 104.17C252.69 102.92 251.62 101.91 250.31 101.91H248.13V108.93H249.23V106.21H250.09L251.98 108.93H253.33L251.29 106.12H251.3ZM250.34 105.3H249.24V103.01H250.34C251 103.01 251.55 103.49 251.55 104.14C251.55 104.79 251 105.3 250.34 105.3Z" fill="#0E0E0E"/>
<path d="M261.33 101.77H261.26L257.96 108.93H259.16L259.63 107.86H262.95L263.43 108.93H264.62L261.32 101.77H261.33ZM260.06 106.92L261.29 104.17L262.53 106.92H260.06Z" fill="#0E0E0E"/>
<path d="M270.96 107.83V101.91H269.86V108.93H274.09V107.83H270.96Z" fill="#0E0E0E"/>
<path d="M279.42 101.91V108.93H280.52V101.91H279.42Z" fill="#0E0E0E"/>
<path d="M288.88 104.86C288.02 104.49 287.38 104.3 287.38 103.76C287.38 103.26 287.89 102.86 288.54 102.86C289.05 102.86 289.53 103.13 289.74 103.6L290.56 103.04C290.27 102.27 289.52 101.79 288.53 101.79C287.27 101.79 286.27 102.59 286.27 103.74C286.27 104.89 287.18 105.26 288.01 105.63C288.82 105.98 289.75 106.37 289.75 107.02C289.75 107.56 289.16 107.93 288.37 107.93C287.7 107.93 287.11 107.61 286.8 107.07L285.93 107.69C286.33 108.5 287.2 109.04 288.36 109.04C289.79 109.04 290.86 108.23 290.86 107C290.86 105.89 290 105.36 288.89 104.87L288.88 104.86Z" fill="#0E0E0E"/>
<path d="M300.43 103V101.91H296.25V108.93H300.43V107.83H297.35V105.89H300.01V104.79H297.35V103H300.43ZM298.44 99.91L297.58 101.33H298.37L299.41 99.91H298.44Z" fill="#0E0E0E"/>
<path d="M310.21 103V101.91H306.03V108.93H310.21V107.83H307.14V105.89H309.79V104.79H307.14V103H310.21Z" fill="#0E0E0E"/>
<path d="M323.45 107.65C323.04 107.65 322.71 107.98 322.71 108.39C322.71 108.8 323.04 109.13 323.45 109.13C323.86 109.13 324.19 108.8 324.19 108.39C324.19 107.98 323.85 107.65 323.45 107.65Z" fill="#0E0E0E"/>
<path d="M339.44 104.86C338.58 104.49 337.94 104.3 337.94 103.76C337.94 103.26 338.45 102.86 339.09 102.86C339.6 102.86 340.09 103.13 340.3 103.6L341.11 103.04C340.83 102.27 340.08 101.79 339.08 101.79C337.82 101.79 336.82 102.59 336.82 103.74C336.82 104.89 337.74 105.26 338.56 105.63C339.38 105.98 340.3 106.37 340.3 107.02C340.3 107.56 339.7 107.93 338.91 107.93C338.24 107.93 337.66 107.61 337.34 107.07L336.48 107.69C336.88 108.5 337.75 109.04 338.9 109.04C340.32 109.04 341.4 108.23 341.4 107C341.4 105.89 340.54 105.36 339.43 104.87L339.44 104.86Z" fill="#0E0E0E"/>
<path d="M350.99 103V101.91H346.81V108.93H350.99V107.83H347.92V105.89H350.57V104.79H347.92V103H350.99ZM349 99.91L348.14 101.33H348.94L349.98 99.91H349.01H349Z" fill="#0E0E0E"/>
<path d="M359.86 107.93C358.61 107.93 357.37 106.84 357.37 105.42C357.37 104 358.58 102.9 359.85 102.9C360.54 102.9 361.18 103.22 361.67 103.72L362.31 102.85C361.63 102.19 360.79 101.8 359.88 101.78C357.91 101.78 356.26 103.44 356.26 105.42C356.26 107.4 357.91 109.03 359.9 109.03C360.95 109.03 361.72 108.57 362.32 107.98L361.69 107.1C361.21 107.57 360.59 107.93 359.87 107.93H359.86Z" fill="#0E0E0E"/>
<path d="M371.77 101.91V106.26C371.77 107.23 371.08 107.94 370.23 107.94C369.38 107.94 368.69 107.23 368.69 106.26V101.91H367.58V106.26C367.58 107.87 368.74 109.05 370.23 109.05C371.72 109.05 372.89 107.87 372.89 106.26V101.91H371.78H371.77Z" fill="#0E0E0E"/>
<path d="M381.78 106.12C382.59 105.85 383.17 105.07 383.17 104.17C383.17 102.92 382.1 101.91 380.79 101.91H378.61V108.93H379.71V106.21H380.57L382.46 108.93H383.81L381.77 106.12H381.78ZM380.82 105.3H379.72V103.01H380.82C381.48 103.01 382.04 103.49 382.04 104.14C382.04 104.79 381.48 105.3 380.82 105.3Z" fill="#0E0E0E"/>
<path d="M389.01 101.91V108.93H390.11V101.91H389.01Z" fill="#0E0E0E"/>
<path d="M395.45 101.91V103.01H397.34V108.93H398.44V103.01H400.32V101.91H395.45Z" fill="#0E0E0E"/>
<path d="M409.83 103V101.91H405.65V108.93H409.83V107.83H406.75V105.89H409.41V104.79H406.75V103H409.83ZM407.83 99.91L406.97 101.33H407.76L408.8 99.91H407.83Z" fill="#0E0E0E"/>
<path d="M425.78 101.78C423.79 101.78 422.16 103.42 422.16 105.42C422.16 107.42 423.79 109.03 425.77 109.03C427.75 109.03 429.41 107.4 429.41 105.42C429.41 103.44 427.77 101.78 425.78 101.78ZM425.77 107.92C424.39 107.92 423.26 106.79 423.26 105.41C423.26 104.03 424.39 102.89 425.77 102.89C427.15 102.89 428.29 104.02 428.29 105.41C428.29 106.8 427.15 107.92 425.77 107.92Z" fill="#0E0E0E"/>
<path d="M437.22 101.91H434.88V108.93H435.98V106.5H437.22C438.58 106.5 439.69 105.48 439.69 104.23C439.69 102.98 438.59 101.91 437.22 101.91ZM437.22 105.4H435.98V103H437.22C437.98 103 438.59 103.54 438.59 104.21C438.59 104.88 437.98 105.4 437.22 105.4Z" fill="#0E0E0E"/>
<path d="M444.55 101.91V103.01H446.43V108.93H447.53V103.01H449.41V101.91H444.55Z" fill="#0E0E0E"/>
<path d="M454.74 101.91V108.93H455.84V101.91H454.74Z" fill="#0E0E0E"/>
<path d="M468.43 101.76L465.08 106.86L461.72 101.76H461.64V108.93H462.74V105.03L465.07 108.8L467.4 105.03V108.93H468.5V101.76H468.42H468.43Z" fill="#0E0E0E"/>
<path d="M474.32 101.91V108.93H475.42V101.91H474.32Z" fill="#0E0E0E"/>
<path d="M483.78 104.86C482.92 104.49 482.28 104.3 482.28 103.76C482.28 103.26 482.79 102.86 483.44 102.86C483.95 102.86 484.43 103.13 484.64 103.6L485.46 103.04C485.17 102.27 484.42 101.79 483.42 101.79C482.17 101.79 481.17 102.59 481.17 103.74C481.17 104.89 482.08 105.26 482.91 105.63C483.72 105.98 484.65 106.37 484.65 107.02C484.65 107.56 484.05 107.93 483.27 107.93C482.59 107.93 482.01 107.61 481.69 107.07L480.83 107.69C481.23 108.5 482.1 109.04 483.26 109.04C484.68 109.04 485.76 108.23 485.76 107C485.76 105.89 484.9 105.36 483.79 104.87L483.78 104.86Z" fill="#0E0E0E"/>
<path d="M495.33 103V101.91H491.16V108.93H495.33V107.83H492.26V105.89H494.92V104.79H492.26V103H495.33ZM493.34 99.91L492.48 101.33H493.28L494.32 99.91H493.35H493.34Z" fill="#0E0E0E"/>
<path d="M505.11 103V101.91H500.93V108.93H505.11V107.83H502.03V105.89H504.69V104.79H502.03V103H505.11Z" fill="#0E0E0E"/>
<path d="M513.4 107.45C512.99 107.45 512.65 107.78 512.65 108.19C512.65 108.6 512.99 108.93 513.4 108.93C513.81 108.93 514.14 108.6 514.14 108.19C514.14 107.78 513.8 107.45 513.4 107.45Z" fill="#0E0E0E"/>
<path d="M149.32 92.79V37.79H165.94L175.61 75.31L185.17 37.79H201.32V92.79H191.32V49.5L180.74 92.79H169.87L159.32 49.5V92.79H149.32Z" fill="#72D3A8"/>
<path d="M235.76 79.98L246.23 81.74C244.88 85.58 242.76 88.5 239.85 90.51C236.95 92.52 233.31 93.52 228.95 93.52C222.04 93.52 216.93 91.26 213.62 86.75C211 83.14 209.69 78.57 209.69 73.06C209.69 66.48 211.41 61.32 214.85 57.6C218.29 53.87 222.64 52.01 227.9 52.01C233.81 52.01 238.47 53.96 241.89 57.86C245.31 61.76 246.94 67.74 246.79 75.79H220.46C220.54 78.91 221.38 81.33 223 83.06C224.62 84.79 226.64 85.66 229.06 85.66C230.71 85.66 232.09 85.21 233.21 84.31C234.33 83.41 235.18 81.97 235.75 79.97L235.76 79.98ZM236.36 69.79C236.29 66.75 235.5 64.44 234 62.85C232.5 61.27 230.68 60.48 228.54 60.48C226.25 60.48 224.35 61.32 222.86 62.99C221.36 64.66 220.63 66.93 220.65 69.8H236.36V69.79Z" fill="#72D3A8"/>
<path d="M292.32 92.79H282.32V86.83C280.4 89.1 278.49 90.79 276.28 91.9C274.07 93.01 271.85 93.56 269.6 93.56C265.04 93.56 261.13 91.72 257.88 88.04C254.63 84.36 253 79.23 253 72.65C253 66.07 254.58 60.8 257.75 57.3C260.92 53.8 264.92 52.05 269.75 52.05C274.19 52.05 281.31 57.58 281.31 57.58V37.79H292.31V92.79H292.32ZM263.74 71.94C263.74 76.18 264.33 79.25 265.5 81.14C267.19 83.88 269.56 85.25 272.61 85.25C275.03 85.25 277.08 84.22 278.78 82.16C280.48 80.1 281.32 77.03 281.32 72.94C281.32 68.38 280.5 65.09 278.85 63.09C277.2 61.08 275.1 60.08 272.53 60.08C269.96 60.08 267.95 61.07 266.27 63.05C264.59 65.03 263.75 67.99 263.75 71.93L263.74 71.94Z" fill="#72D3A8"/>
<path d="M301 48V38H312V48H301ZM301 93V53H312V93H301Z" fill="#72D3A8"/>
<path d="M331.2 92.79L318.07 37.79H329.44L337.73 75.57L347.78 37.79H360.99L370.63 76.21L379.07 37.79H390.25L376.89 92.79H365.11L354.16 51.67L343.24 92.79H331.2Z" fill="#1E2C69"/>
<path d="M391.89 72.24C391.89 68.75 392.75 65.37 394.47 62.11C396.19 58.84 398.63 56.35 401.78 54.63C404.93 52.91 408.46 52.05 412.34 52.05C418.35 52.05 423.27 54 427.11 57.9C430.95 61.8 432.87 66.73 432.87 72.69C432.87 78.65 430.93 83.68 427.05 87.63C423.17 91.58 418.29 93.56 412.41 93.56C408.77 93.56 405.3 92.74 401.99 91.09C398.69 89.44 396.17 87.03 394.46 83.85C392.74 80.67 391.88 76.8 391.88 72.24H391.89ZM402.66 72.8C402.66 76.74 403.6 79.76 405.46 81.85C407.33 83.94 409.64 84.99 412.38 84.99C415.12 84.99 417.42 83.94 419.28 81.85C421.14 79.76 422.07 76.71 422.07 72.73C422.07 68.75 421.14 65.85 419.28 63.75C417.42 61.65 415.12 60.61 412.38 60.61C409.64 60.61 407.33 61.66 405.46 63.75C403.59 65.84 402.66 68.86 402.66 72.8Z" fill="#1E2C69"/>
<path d="M451.32 92.79H440.32V52.79H450.32V58.59C452.09 55.92 453.59 54.17 454.93 53.32C456.26 52.47 457.78 52.05 459.47 52.05C461.86 52.05 464.17 52.71 466.39 54.03L463.14 63.19C461.37 62.04 459.72 61.47 458.2 61.47C456.68 61.47 455.48 61.88 454.46 62.69C453.44 63.5 452.63 64.97 452.05 67.08C451.46 69.2 451.17 73.64 451.32 80.39V92.78V92.79Z" fill="#1E2C69"/>
<path d="M470.32 92.79V37.79H481.32V66.88L494.2 52.79H507.74L493.53 67.4L508.76 92.79H496.9L486.45 74.82L481.32 79.98V92.79H470.32Z" fill="#1E2C69"/>
<path d="M509.23 47.7L512.53 47.38C512.73 48.49 513.13 49.3 513.74 49.82C514.35 50.34 515.17 50.6 516.2 50.6C517.29 50.6 518.11 50.37 518.67 49.91C519.23 49.45 519.5 48.91 519.5 48.29C519.5 47.89 519.38 47.56 519.15 47.28C518.92 47 518.51 46.76 517.93 46.55C517.53 46.41 516.63 46.17 515.22 45.82C513.4 45.37 512.13 44.82 511.39 44.16C510.36 43.24 509.84 42.11 509.84 40.78C509.84 39.93 510.08 39.13 510.57 38.38C511.05 37.63 511.75 37.07 512.67 36.68C513.58 36.29 514.68 36.1 515.97 36.1C518.08 36.1 519.66 36.56 520.73 37.49C521.79 38.41 522.35 39.65 522.41 41.19L519.02 41.34C518.87 40.48 518.56 39.86 518.09 39.48C517.61 39.1 516.9 38.91 515.94 38.91C514.98 38.91 514.18 39.11 513.63 39.52C513.27 39.78 513.09 40.13 513.09 40.56C513.09 40.96 513.26 41.3 513.59 41.58C514.02 41.94 515.06 42.31 516.71 42.7C518.36 43.09 519.58 43.49 520.37 43.91C521.16 44.33 521.78 44.9 522.23 45.62C522.68 46.34 522.9 47.23 522.9 48.29C522.9 49.25 522.63 50.15 522.1 50.99C521.57 51.83 520.81 52.45 519.83 52.86C518.85 53.27 517.63 53.47 516.18 53.47C514.06 53.47 512.43 52.98 511.29 52C510.15 51.02 509.47 49.59 509.25 47.71L509.23 47.7Z" fill="black"/>
<path d="M525.32 52.79V35.79H531.7L534.6 47.39L537.47 35.79H542.31V52.79H539.31V39.41L536.13 52.79H531.47L528.31 39.41V52.79H525.31H525.32Z" fill="black"/>
</svg>
