<svg width="551" height="128" viewBox="0 0 551 128" fill="none" xmlns="http://www.w3.org/2000/svg">
<path d="M112.449 26.1246H93.0511V33.3758H119.551V4.37064H85.1165V11.6109H112.449V26.1246Z" fill="#1E2C69"/>
<path d="M32.2691 26.1246H12.7518V11.6109H40.193V4.37064H5.6506V33.3758H32.2691V26.1246Z" fill="#1E2C69"/>
<path d="M40.193 119.056V126.296H5.6506V97.3021H32.2691V104.553H12.7626V119.056H40.193Z" fill="#1E2C69"/>
<path d="M119.551 97.3021V126.296H85.1165V119.056H112.449V104.553H93.0511V97.3021H119.551Z" fill="#1E2C69"/>
<path d="M115.415 69.0363C112.915 69.0363 110.707 70.416 109.516 72.4689H70.427V114.597C68.3378 115.8 66.9414 118.085 66.9414 120.689C66.9414 124.574 70.0265 127.709 73.826 127.709C77.6256 127.709 80.6999 124.563 80.6999 120.689C80.6999 118.206 79.4334 116.021 77.5282 114.785V79.7091H109.559C110.772 81.7289 112.947 83.0644 115.426 83.0644C119.237 83.0644 122.311 79.9188 122.311 76.0448C122.311 72.1708 119.226 69.0253 115.426 69.0253L115.415 69.0363ZM73.826 122.72C72.7327 122.72 71.8451 121.815 71.8451 120.7C71.8451 119.586 72.7327 118.681 73.826 118.681C74.9194 118.681 75.807 119.586 75.807 120.7C75.807 121.815 74.9194 122.72 73.826 122.72ZM115.415 78.0756C114.322 78.0756 113.435 77.1706 113.435 76.0559C113.435 74.9411 114.322 74.0361 115.415 74.0361C116.509 74.0361 117.396 74.9411 117.396 76.0559C117.396 77.1706 116.509 78.0756 115.415 78.0756Z" fill="#72D3A8"/>
<path d="M117.451 45.4393C114.733 45.4393 112.374 47.0507 111.259 49.3905H77.5173V12.9243C79.4333 11.6882 80.6891 9.50286 80.6891 7.01954C80.6891 3.14556 77.6039 0 73.8152 0C70.0265 0 66.9305 3.14556 66.9305 7.01954C66.9305 9.63531 68.327 11.9089 70.4162 13.1119V56.6308H111.919C113.175 58.3415 115.188 59.4562 117.451 59.4562C121.25 59.4562 124.335 56.3107 124.335 52.4477C124.335 48.5848 121.25 45.4282 117.451 45.4282V45.4393ZM73.826 9.03929C72.7327 9.03929 71.8451 8.13428 71.8451 7.01954C71.8451 5.90481 72.7327 4.99975 73.826 4.99975C74.9193 4.99975 75.807 5.90481 75.807 7.01954C75.807 8.13428 74.9193 9.03929 73.826 9.03929ZM117.451 54.4786C116.357 54.4786 115.47 53.5735 115.47 52.4588C115.47 51.3441 116.357 50.439 117.451 50.439C118.544 50.439 119.431 51.3441 119.431 52.4588C119.431 53.5735 118.544 54.4786 117.451 54.4786Z" fill="#1E2C69"/>
<path d="M51.4616 0C47.6512 0 44.5769 3.14556 44.5769 7.01954C44.5769 9.5139 45.8651 11.7213 47.7919 12.9464V49.3905H13.0872C11.9722 47.0507 9.61235 45.4393 6.89529 45.4393C3.09574 45.4393 0.0106506 48.5848 0.0106506 52.4588C0.0106506 56.3328 3.09574 59.4673 6.89529 59.4673C9.1577 59.4673 11.1711 58.3526 12.4268 56.6418H54.9039V13.0899C56.9606 11.8869 58.3462 9.61323 58.3462 7.01954C58.3462 3.14556 55.2611 0 51.4724 0H51.4616ZM6.88446 54.4786C5.79114 54.4786 4.90351 53.5735 4.90351 52.4588C4.90351 51.3441 5.79114 50.439 6.88446 50.439C7.97778 50.439 8.86544 51.3441 8.86544 52.4588C8.86544 53.5735 7.97778 54.4786 6.88446 54.4786ZM51.4616 9.03929C50.3682 9.03929 49.4697 8.13428 49.4697 7.01954C49.4697 5.90481 50.3682 4.99975 51.4616 4.99975C52.5549 4.99975 53.4425 5.90481 53.4425 7.01954C53.4425 8.13428 52.5549 9.03929 51.4616 9.03929Z" fill="#72D3A8"/>
<path d="M54.8932 114.63V72.4799H12.7951C11.5935 70.427 9.39603 69.0474 6.88464 69.0474C3.08509 69.0474 0 72.1929 0 76.0669C0 79.9409 3.08509 83.0864 6.88464 83.0864C9.36355 83.0864 11.5502 81.7509 12.7626 79.7312H47.7921V114.774C45.8652 116.01 44.5771 118.206 44.5771 120.7C44.5771 124.586 47.6622 127.72 51.4617 127.72C55.2613 127.72 58.3356 124.574 58.3356 120.7C58.3356 118.107 56.95 115.833 54.8932 114.63ZM6.88464 78.0756C5.79132 78.0756 4.90369 77.1706 4.90369 76.0559C4.90369 74.9411 5.79132 74.0361 6.88464 74.0361C7.97796 74.0361 8.86562 74.9411 8.86562 76.0559C8.86562 77.1706 7.97796 78.0756 6.88464 78.0756ZM51.4617 122.72C50.3684 122.72 49.4699 121.815 49.4699 120.7C49.4699 119.586 50.3684 118.681 51.4617 118.681C52.5551 118.681 53.4427 119.586 53.4427 120.7C53.4427 121.815 52.5551 122.72 51.4617 122.72Z" fill="#1E2C69"/>
<path d="M156.583 105.458C155.652 105.05 154.959 104.84 154.959 104.244C154.959 103.692 155.511 103.251 156.204 103.251C156.756 103.251 157.286 103.549 157.514 104.068L158.39 103.45C158.087 102.6 157.275 102.07 156.193 102.07C154.829 102.07 153.747 102.953 153.747 104.222C153.747 105.491 154.732 105.9 155.63 106.308C156.518 106.695 157.514 107.125 157.514 107.842C157.514 108.438 156.864 108.847 156.009 108.847C155.284 108.847 154.656 108.494 154.309 107.898L153.378 108.582C153.811 109.476 154.753 110.072 156.009 110.072C157.546 110.072 158.715 109.178 158.715 107.82C158.715 106.595 157.784 106.01 156.583 105.469V105.458Z" fill="#0E0E0E"/>
<path d="M167.202 102.048H167.126L163.554 109.95H164.853L165.362 108.769H168.956L169.475 109.95H170.763L167.191 102.048H167.202ZM165.838 107.732L167.18 104.697L168.512 107.732H165.838Z" fill="#0E0E0E"/>
<path d="M181.35 102.18V107.235L176.501 102.07H176.436V109.961H177.626V104.907L182.476 110.072H182.541V102.18H181.35Z" fill="#0E0E0E"/>
<path d="M188.321 102.202V103.417H190.356V109.95H191.547V103.417H193.593V102.202H188.321Z" fill="#0E0E0E"/>
<path d="M203.888 103.406V102.202H199.363V109.95H203.888V108.736H200.554V106.595H203.433V105.381H200.554V103.406H203.888ZM201.723 99.9951L200.792 101.562H201.658L202.783 99.9951H201.733H201.723Z" fill="#0E0E0E"/>
<path d="M221.132 108.847C219.779 108.847 218.436 107.644 218.436 106.076C218.436 104.509 219.757 103.295 221.132 103.295C221.868 103.295 222.561 103.648 223.102 104.2L223.795 103.24C223.048 102.512 222.138 102.081 221.153 102.059C219.021 102.059 217.235 103.891 217.235 106.076C217.235 108.262 219.021 110.061 221.175 110.061C222.312 110.061 223.145 109.553 223.806 108.902L223.113 107.931C222.593 108.449 221.922 108.847 221.143 108.847H221.132Z" fill="#0E0E0E"/>
<path d="M234.068 103.406V102.202H229.554V109.95H234.068V108.736H230.744V106.595H233.624V105.381H230.744V103.406H234.068Z" fill="#0E0E0E"/>
<path d="M245.044 102.18V107.235L240.194 102.07H240.13V109.961H241.32V104.907L246.17 110.072H246.235V102.18H245.044Z" fill="#0E0E0E"/>
<path d="M252.015 102.202V103.417H254.05V109.95H255.241V103.417H257.287V102.202H252.015Z" fill="#0E0E0E"/>
<path d="M266.477 106.849C267.354 106.551 267.982 105.69 267.982 104.697C267.982 103.317 266.824 102.202 265.406 102.202H263.046V109.95H264.237V106.948H265.168L267.213 109.95H268.675L266.467 106.849H266.477ZM265.438 105.944H264.247V103.417H265.438C266.153 103.417 266.748 103.946 266.748 104.664C266.748 105.381 266.153 105.944 265.438 105.944Z" fill="#0E0E0E"/>
<path d="M277.335 102.048H277.259L273.687 109.95H274.986L275.495 108.769H279.088L279.608 109.95H280.896L277.324 102.048H277.335ZM275.96 107.732L277.291 104.697L278.634 107.732H275.96Z" fill="#0E0E0E"/>
<path d="M287.759 108.736V102.202H286.568V109.95H291.147V108.736H287.759Z" fill="#0E0E0E"/>
<path d="M296.917 102.202V109.95H298.108V102.202H296.917Z" fill="#0E0E0E"/>
<path d="M307.158 105.458C306.227 105.05 305.534 104.84 305.534 104.244C305.534 103.692 306.086 103.251 306.789 103.251C307.342 103.251 307.861 103.549 308.088 104.068L308.976 103.45C308.662 102.6 307.85 102.07 306.779 102.07C305.415 102.07 304.332 102.953 304.332 104.222C304.332 105.491 305.317 105.9 306.216 106.308C307.093 106.695 308.099 107.125 308.099 107.842C308.099 108.438 307.461 108.847 306.605 108.847C305.88 108.847 305.241 108.494 304.906 107.898L303.964 108.582C304.397 109.476 305.339 110.072 306.595 110.072C308.143 110.072 309.301 109.178 309.301 107.82C309.301 106.595 308.37 106.01 307.168 105.469L307.158 105.458Z" fill="#0E0E0E"/>
<path d="M319.66 103.406V102.202H315.135V109.95H319.66V108.736H316.326V106.595H319.206V105.381H316.326V103.406H319.66ZM317.506 99.9951L316.575 101.562H317.43L318.556 99.9951H317.506Z" fill="#0E0E0E"/>
<path d="M330.247 103.406V102.202H325.722V109.95H330.247V108.736H326.924V106.595H329.792V105.381H326.924V103.406H330.247Z" fill="#0E0E0E"/>
<path d="M344.579 108.538C344.136 108.538 343.778 108.902 343.778 109.354C343.778 109.807 344.136 110.171 344.579 110.171C345.023 110.171 345.38 109.807 345.38 109.354C345.38 108.902 345.012 108.538 344.579 108.538Z" fill="#0E0E0E"/>
<path d="M361.888 105.458C360.957 105.05 360.265 104.84 360.265 104.244C360.265 103.692 360.817 103.251 361.51 103.251C362.062 103.251 362.592 103.549 362.819 104.068L363.696 103.45C363.393 102.6 362.581 102.07 361.499 102.07C360.135 102.07 359.052 102.953 359.052 104.222C359.052 105.491 360.048 105.9 360.936 106.308C361.823 106.695 362.819 107.125 362.819 107.842C362.819 108.438 362.17 108.847 361.315 108.847C360.589 108.847 359.962 108.494 359.615 107.898L358.684 108.582C359.117 109.476 360.059 110.072 361.304 110.072C362.841 110.072 364.01 109.178 364.01 107.82C364.01 106.595 363.079 106.01 361.878 105.469L361.888 105.458Z" fill="#0E0E0E"/>
<path d="M374.391 103.406V102.202H369.866V109.95H374.391V108.736H371.068V106.595H373.937V105.381H371.068V103.406H374.391ZM372.237 99.9951L371.306 101.562H372.172L373.298 99.9951H372.248H372.237Z" fill="#0E0E0E"/>
<path d="M383.993 108.847C382.64 108.847 381.297 107.644 381.297 106.076C381.297 104.509 382.607 103.295 383.982 103.295C384.729 103.295 385.422 103.648 385.952 104.2L386.645 103.24C385.909 102.512 385 102.081 384.015 102.059C381.882 102.059 380.096 103.891 380.096 106.076C380.096 108.262 381.882 110.061 384.036 110.061C385.173 110.061 386.006 109.553 386.656 108.902L385.974 107.931C385.454 108.449 384.783 108.847 384.004 108.847H383.993Z" fill="#0E0E0E"/>
<path d="M396.885 102.202V107.004C396.885 108.074 396.138 108.858 395.218 108.858C394.298 108.858 393.551 108.074 393.551 107.004V102.202H392.35V107.004C392.35 108.781 393.605 110.083 395.218 110.083C396.831 110.083 398.098 108.781 398.098 107.004V102.202H396.896H396.885Z" fill="#0E0E0E"/>
<path d="M407.721 106.849C408.598 106.551 409.226 105.69 409.226 104.697C409.226 103.317 408.068 102.202 406.649 102.202H404.29V109.95H405.48V106.948H406.411L408.457 109.95H409.919L407.71 106.849H407.721ZM406.682 105.944H405.491V103.417H406.682C407.396 103.417 408.003 103.946 408.003 104.664C408.003 105.381 407.396 105.944 406.682 105.944Z" fill="#0E0E0E"/>
<path d="M415.548 102.202V109.95H416.738V102.202H415.548Z" fill="#0E0E0E"/>
<path d="M422.519 102.202V103.417H424.565V109.95H425.756V103.417H427.791V102.202H422.519Z" fill="#0E0E0E"/>
<path d="M438.085 103.406V102.202H433.56V109.95H438.085V108.736H434.751V106.595H437.63V105.381H434.751V103.406H438.085ZM435.92 99.9951L434.989 101.562H435.844L436.97 99.9951H435.92Z" fill="#0E0E0E"/>
<path d="M455.351 102.059C453.197 102.059 451.432 103.869 451.432 106.076C451.432 108.284 453.197 110.061 455.34 110.061C457.483 110.061 459.28 108.262 459.28 106.076C459.28 103.891 457.505 102.059 455.351 102.059ZM455.34 108.836C453.846 108.836 452.623 107.589 452.623 106.065C452.623 104.542 453.846 103.284 455.34 103.284C456.834 103.284 458.068 104.531 458.068 106.065C458.068 107.6 456.834 108.836 455.34 108.836Z" fill="#0E0E0E"/>
<path d="M467.735 102.202H465.202V109.95H466.392V107.268H467.735C469.207 107.268 470.408 106.143 470.408 104.763C470.408 103.383 469.218 102.202 467.735 102.202ZM467.735 106.054H466.392V103.406H467.735C468.557 103.406 469.218 104.002 469.218 104.741C469.218 105.48 468.557 106.054 467.735 106.054Z" fill="#0E0E0E"/>
<path d="M475.669 102.202V103.417H477.704V109.95H478.895V103.417H480.93V102.202H475.669Z" fill="#0E0E0E"/>
<path d="M486.7 102.202V109.95H487.891V102.202H486.7Z" fill="#0E0E0E"/>
<path d="M501.519 102.037L497.893 107.666L494.256 102.037H494.169V109.95H495.36V105.646L497.882 109.807L500.404 105.646V109.95H501.595V102.037H501.508H501.519Z" fill="#0E0E0E"/>
<path d="M507.895 102.202V109.95H509.086V102.202H507.895Z" fill="#0E0E0E"/>
<path d="M518.136 105.458C517.205 105.05 516.512 104.84 516.512 104.244C516.512 103.692 517.064 103.251 517.767 103.251C518.32 103.251 518.839 103.549 519.066 104.068L519.954 103.45C519.64 102.6 518.828 102.07 517.746 102.07C516.393 102.07 515.31 102.953 515.31 104.222C515.31 105.491 516.295 105.9 517.194 106.308C518.07 106.695 519.077 107.125 519.077 107.842C519.077 108.438 518.428 108.847 517.583 108.847C516.847 108.847 516.219 108.494 515.873 107.898L514.942 108.582C515.375 109.476 516.317 110.072 517.573 110.072C519.11 110.072 520.279 109.178 520.279 107.82C520.279 106.595 519.348 106.01 518.146 105.469L518.136 105.458Z" fill="#0E0E0E"/>
<path d="M530.638 103.406V102.202H526.124V109.95H530.638V108.736H527.315V106.595H530.194V105.381H527.315V103.406H530.638ZM528.484 99.9951L527.553 101.562H528.419L529.545 99.9951H528.495H528.484Z" fill="#0E0E0E"/>
<path d="M541.225 103.406V102.202H536.7V109.95H541.225V108.736H537.891V106.595H540.77V105.381H537.891V103.406H541.225Z" fill="#0E0E0E"/>
<path d="M550.199 108.317C549.755 108.317 549.387 108.681 549.387 109.134C549.387 109.586 549.755 109.95 550.199 109.95C550.643 109.95 551 109.586 551 109.134C551 108.681 550.632 108.317 550.199 108.317Z" fill="#0E0E0E"/>
</svg>
